<svg xmlns="http://www.w3.org/2000/svg" viewBox="0 0 800 600">
  <defs>
    <linearGradient id="progressGrad" x1="0%" y1="0%" x2="100%" y2="0%">
      <stop offset="0%" style="stop-color:#22c55e"/>
      <stop offset="100%" style="stop-color:#16a34a"/>
    </linearGradient>
    <linearGradient id="pendingGrad" x1="0%" y1="0%" x2="100%" y2="0%">
      <stop offset="0%" style="stop-color:#3b82f6"/>
      <stop offset="100%" style="stop-color:#1d4ed8"/>
    </linearGradient>
  </defs>
  
  <!-- Background -->
  <rect width="800" height="600" fill="#0f172a"/>
  
  <!-- Title -->
  <text x="400" y="40" text-anchor="middle" fill="#f8fafc" font-family="system-ui" font-size="24" font-weight="bold">vTPU Progress — R23W28</text>
  <text x="400" y="65" text-anchor="middle" fill="#94a3b8" font-family="system-ui" font-size="14">632 tests | 50+ modules | 19,170 lines</text>
  
  <!-- Progress Ring -->
  <circle cx="200" cy="200" r="80" fill="none" stroke="#334155" stroke-width="16"/>
  <circle cx="200" cy="200" r="80" fill="none" stroke="url(#progressGrad)" stroke-width="16" 
          stroke-dasharray="402" stroke-dashoffset="80" stroke-linecap="round" transform="rotate(-90 200 200)"/>
  <text x="200" y="195" text-anchor="middle" fill="#f8fafc" font-family="system-ui" font-size="36" font-weight="bold">80%</text>
  <text x="200" y="220" text-anchor="middle" fill="#94a3b8" font-family="system-ui" font-size="12">COMPLETE</text>
  
  <!-- Wave Progress Bars -->
  <text x="350" y="120" fill="#f8fafc" font-family="system-ui" font-size="14" font-weight="bold">Wave Progress</text>
  
  <!-- W24 -->
  <text x="350" y="150" fill="#94a3b8" font-family="system-ui" font-size="12">W24 Pattern Library</text>
  <rect x="350" y="158" width="400" height="16" rx="4" fill="#334155"/>
  <rect x="350" y="158" width="400" height="16" rx="4" fill="url(#progressGrad)"/>
  <text x="760" y="170" fill="#22c55e" font-family="system-ui" font-size="11">✓</text>
  
  <!-- W25 -->
  <text x="350" y="195" fill="#94a3b8" font-family="system-ui" font-size="12">W25 Intent Parser + Trick Compute</text>
  <rect x="350" y="203" width="400" height="16" rx="4" fill="#334155"/>
  <rect x="350" y="203" width="400" height="16" rx="4" fill="url(#progressGrad)"/>
  <text x="760" y="215" fill="#22c55e" font-family="system-ui" font-size="11">✓</text>
  
  <!-- W26 -->
  <text x="350" y="240" fill="#94a3b8" font-family="system-ui" font-size="12">W26 Coordinate Arithmetic</text>
  <rect x="350" y="248" width="400" height="16" rx="4" fill="#334155"/>
  <rect x="350" y="248" width="400" height="16" rx="4" fill="url(#progressGrad)"/>
  <text x="760" y="260" fill="#22c55e" font-family="system-ui" font-size="11">✓</text>
  
  <!-- W27 -->
  <text x="350" y="285" fill="#94a3b8" font-family="system-ui" font-size="12">W27 Orin Coordination</text>
  <rect x="350" y="293" width="400" height="16" rx="4" fill="#334155"/>
  <rect x="350" y="293" width="400" height="16" rx="4" fill="url(#progressGrad)"/>
  <text x="760" y="305" fill="#22c55e" font-family="system-ui" font-size="11">✓</text>
  
  <!-- W28 -->
  <text x="350" y="330" fill="#94a3b8" font-family="system-ui" font-size="12">W28 Fill Gaps</text>
  <rect x="350" y="338" width="400" height="16" rx="4" fill="#334155"/>
  <rect x="350" y="338" width="80" height="16" rx="4" fill="url(#pendingGrad)"/>
  <text x="760" y="350" fill="#3b82f6" font-family="system-ui" font-size="11">20%</text>
  
  <!-- Pending Capabilities Section -->
  <text x="50" y="400" fill="#f8fafc" font-family="system-ui" font-size="16" font-weight="bold">⏳ Pending Capabilities</text>
  <line x1="50" y1="415" x2="750" y2="415" stroke="#334155" stroke-width="1"/>
  
  <!-- Pending Items -->
  <circle cx="70" cy="445" r="6" fill="#f59e0b"/>
  <text x="90" y="450" fill="#fbbf24" font-family="system-ui" font-size="13">perf.rs — Performance measurement tests (1→10 tests)</text>
  
  <circle cx="70" cy="475" r="6" fill="#f59e0b"/>
  <text x="90" y="480" fill="#fbbf24" font-family="system-ui" font-size="13">phoenix_scheduler.rs — NUMA detection, power efficiency</text>
  
  <circle cx="70" cy="505" r="6" fill="#f59e0b"/>
  <text x="90" y="510" fill="#fbbf24" font-family="system-ui" font-size="13">cluster.rs — Multi-node coordination</text>
  
  <circle cx="70" cy="535" r="6" fill="#f59e0b"/>
  <text x="90" y="540" fill="#fbbf24" font-family="system-ui" font-size="13">sysfs.rs — Linux sysfs reading (platform-specific)</text>
  
  <circle cx="70" cy="565" r="6" fill="#f59e0b"/>
  <text x="90" y="570" fill="#fbbf24" font-family="system-ui" font-size="13">pipes.rs — Pipeline stage tests (3→10 tests)</text>
  
  <!-- Stats Box -->
  <rect x="550" y="430" width="200" height="130" rx="8" fill="#1e293b" stroke="#334155"/>
  <text x="650" y="455" text-anchor="middle" fill="#f8fafc" font-family="system-ui" font-size="12" font-weight="bold">W28 Targets</text>
  <text x="570" y="480" fill="#94a3b8" font-family="system-ui" font-size="11">Tests: 632 → 650+</text>
  <text x="570" y="500" fill="#94a3b8" font-family="system-ui" font-size="11">Low coverage modules: 5</text>
  <text x="570" y="520" fill="#94a3b8" font-family="system-ui" font-size="11">TODOs remaining: 3</text>
  <text x="570" y="540" fill="#94a3b8" font-family="system-ui" font-size="11">Stub modules: 4</text>
</svg>
